<svg width="307" height="307" viewBox="0 0 307 307" fill="none" xmlns="http://www.w3.org/2000/svg">
<path d="M138.534 140.921C142.272 146.459 146.011 151.997 149.813 157.635C139.377 160.618 129.571 158.026 128.979 152.085C128.526 147.529 131.648 143.74 133.927 140.266C136.406 136.478 141.567 138.781 146.238 137.888C143.103 134.124 139.944 134.112 136.381 135.182C124.397 138.769 112.3 140.166 99.9262 137.17C97.7359 136.642 95.2686 136.377 93.0909 136.793C69.3373 141.361 45.4578 138.303 21.6286 138.341C18.8466 138.341 17.9277 137.497 17.9529 134.817C18.041 127.089 17.9907 119.361 17.9907 110.852C27.3687 114.754 35.7272 114.037 43.2674 107.957C45.1557 106.434 46.7417 107.605 48.5041 108.222C58.6374 111.796 66.87 109.367 72.6731 100.657C74.4606 97.9765 76.4999 96.6549 79.521 95.8746C88.5592 93.5084 94.0476 87.6683 94.8532 78.2286C95.1805 74.4653 96.0239 73.8864 99.7878 74.9058C109.229 77.4609 116.832 74.3143 121.867 66.0703C123.478 63.4272 125.493 62.3825 128.262 61.6903C137.048 59.4625 142.927 53.0309 143.884 44.9002C144.979 35.5486 141.051 28.2611 132.479 23.7678C131.371 23.1888 130.112 22.7861 129.156 22.0183C123.718 17.6761 123.969 14.5798 129.823 11.0305C156.396 -5.07992 153.929 -2.26059 177.808 11.2193C183.196 14.2652 188.634 17.2985 194.034 20.3444C197.748 22.4337 198.214 23.5287 194.777 26.8263C172.924 47.7698 181.119 83.3261 209.593 92.0358C230.766 98.5177 252.783 85.944 258.032 63.9558C259.127 59.3618 260.172 58.2416 264.339 60.9477C269.248 64.1446 274.497 66.8255 279.495 69.9091C286.745 74.3898 289.716 81.1109 287.929 89.3046C283.636 86.4601 279.482 83.7666 275.378 80.9724C271.652 78.43 268.052 78.4426 265.535 82.294C263.206 85.8685 264.628 89.1032 268.04 91.4442C271.325 93.6972 274.774 95.7361 277.883 98.203C281.27 100.897 284.442 100.116 288.81 97.2465C288.81 109.694 288.91 121.047 288.747 132.4C288.697 135.647 285.701 134.653 283.863 134.804C264.553 136.377 245.683 139.851 227.607 147.126C190.145 162.204 161.029 187.087 140.283 221.649C137.791 225.79 136.041 226.973 131.736 224.003C124.297 218.868 116.026 215.167 107.517 212.147C103.476 210.712 101.89 208.119 102.028 204.117C102.142 200.983 102.444 197.836 102.444 194.702C102.444 190.083 103.048 186.219 108.436 184.457C111.155 183.563 112.678 180.593 113.823 177.786C115.649 173.268 118.405 169.353 121.93 165.942C126.009 162.003 130.138 158.592 136.23 162.015C136.91 162.393 137.879 162.443 138.697 162.393C143.569 162.091 149.888 164.457 152.683 159.46C155.2 154.955 149.171 152.135 147.031 148.548C145.168 145.427 143.229 142.117 140.17 139.914C139.641 140.229 139.088 140.581 138.534 140.921ZM182.277 119.084C182.844 118.857 184.04 118.719 184.719 118.052C189.377 113.483 193.178 108.222 195.482 102.13C196.527 99.361 194.991 96.8689 192.26 95.3711C189.364 93.7853 186.721 94.6034 184.958 96.8941C181.761 101.022 178.652 105.289 176.122 109.845C173.717 114.162 177.141 119.323 182.277 119.084ZM226.285 110.374C227.254 114.993 228.11 119.902 229.356 124.722C230.25 128.171 232.793 129.996 236.406 129.354C240.371 128.649 241.982 125.754 241.517 122.029C240.912 117.296 240.056 112.577 238.886 107.957C237.954 104.27 235.21 102.331 231.333 103.187C227.808 103.968 226.272 106.548 226.285 110.374ZM153.677 72.7032C157.642 71.9355 162.388 71.1929 167.046 70.0475C170.734 69.1413 172.937 66.5989 172.081 62.6468C171.25 58.7828 168.355 57.1718 164.528 57.7633C159.996 58.4682 155.49 59.3744 151.008 60.3813C147.509 61.1616 145.407 63.553 145.822 67.1401C146.275 71.0544 148.994 72.8165 153.677 72.7032ZM161.935 5.70652C160.047 5.81979 157.793 6.37359 156.723 8.76498C155.528 11.4459 155.591 14.2904 158.058 16.1531C162.363 19.4004 166.869 22.4085 171.414 25.3285C173.856 26.8892 176.26 26.0208 178.249 24.1832C180.326 22.2575 180.452 19.6899 179.747 17.2355C178.979 14.5295 165.497 5.79462 161.935 5.70652Z" fill="#1A7DB9"/>
<path d="M289.187 161.059C289.187 172.097 289.187 172.097 277.921 173.179C211.607 179.523 157.882 234.701 153.602 300.829C153.174 307.437 152.154 308.243 146.061 305.574C141.857 303.737 137.98 301.169 133.927 298.992C131.724 297.809 131.333 296.047 131.648 293.718C138.886 240.025 165.523 198.994 212.224 171.367C233.473 158.793 256.71 152.135 281.383 150.562C289.162 150.058 289.162 149.983 289.175 157.925C289.187 158.969 289.187 160.014 289.187 161.059Z" fill="#1A7DB9"/>
<path d="M289.187 199.297C289.187 209.529 289.149 209.29 279.255 210.826C237.828 217.27 210.071 240.592 195.784 279.723C193.682 285.475 191.152 289.565 185.6 292.108C181.434 294.021 177.607 296.664 173.591 298.917C172.37 299.597 171.023 301.082 169.651 299.974C168.443 298.992 169.148 297.23 169.299 295.808C175.026 240.794 223.289 193.306 278.399 188.435C289.187 187.491 289.187 187.491 289.187 199.297Z" fill="#1A7DB9"/>
<path d="M54.433 54.5164C65.8 47.9715 77.167 41.4267 88.534 34.8692C96.326 30.3759 104.244 26.0714 111.834 21.2509C116.265 18.4315 118.972 19.5769 120.533 23.9317C121.842 27.5818 123.629 29.6082 127.733 30.5521C133.75 31.924 137.136 38.2297 136.092 44.2082C135.097 49.8846 130.163 54.5164 124.146 54.0759C119.073 53.6983 116.945 54.8059 115.686 60.155C113.899 67.7697 104.143 70.866 98.6296 65.3532C93.4056 60.1299 91.4419 61.8668 87.6906 66.7377C82.2526 73.7734 70.2688 72.7665 66.3917 64.7994C63.7734 59.3999 60.9662 55.9135 54.2946 56.4169C54.3323 55.7876 54.3827 55.1583 54.433 54.5164Z" fill="#1A7DB9"/>
<path d="M32.1522 196.93C30.692 195.935 30.3395 194.375 30.4403 193.015C31.1074 183.915 28.3129 175.697 24.4861 167.667C24.0707 166.798 23.97 164.809 24.0707 164.784C29.685 163.425 29.7857 155.974 35.2237 154.627C39.7176 153.52 41.052 150.814 39.5792 146.685C38.1064 142.57 39.7051 141.512 43.6199 141.852C50.8329 142.469 58.6626 139.712 64.365 147.252C67.084 150.839 67.6253 153.28 64.1259 156.251C60.853 159.02 58.1969 162.191 58.0836 166.798C58.0206 169.466 58.5745 171.883 61.1677 173.179C63.4461 174.325 65.7623 173.909 67.6001 172.235C71.5528 168.673 75.518 165.602 81.3966 166.018C83.8261 166.181 84.5562 163.664 84.594 161.399C84.6821 157.019 83.096 153.255 80.4399 149.832C75.7698 143.79 76.16 142.809 83.801 141.386C87.0361 140.782 90.2838 140.279 95.1554 139.461C90.095 146.471 92.5874 151.795 95.9988 157.119C98.0129 160.266 96.9177 163.614 95.596 166.76C94.1106 170.272 94.7274 173.582 98.4912 174.237C102.721 174.967 102.091 176.653 101.399 179.699C99.4605 188.27 98.2394 196.967 98.8688 205.816C98.957 207.112 99.3346 208.534 97.4086 208.371C96.1246 208.257 95.8981 206.898 96.1876 205.904C99.3849 194.475 92.9902 184.759 90.5733 174.337C90.2964 173.142 90.0824 171.556 88.3578 172.109C86.7843 172.613 87.1242 174.287 87.527 175.344C89.1383 179.586 87.0109 180.895 83.2723 181.562C79.9868 182.153 76.7894 183.211 73.5543 184.092C63.3454 186.873 54.5967 184.142 46.8551 177.22C45.4955 176.011 45.0298 175.42 45.9613 173.356C48.567 167.591 49.3978 161.323 49.8132 155.017C49.8888 153.796 50.0272 152.248 48.1894 152.349C46.8676 152.425 46.8299 153.759 46.8173 154.778C46.6914 162.443 44.413 169.517 41.203 176.414C38.0686 183.173 35.1734 190.07 32.1522 196.93Z" fill="#1A7DB9"/>
<path d="M55.075 218.566C82.6932 218.264 104.924 225.262 125.669 237.785C129.609 240.164 130.238 242.442 128.262 246.331C126.399 250.032 125.958 255.935 123.164 257.281C119.929 258.829 116.278 253.807 112.728 251.794C88.9872 238.326 63.7608 234.097 36.9482 239.132C29.9871 240.441 20.6971 234.16 19.4383 227.414C18.8466 224.242 21.0118 223.978 23.0259 223.475C27.696 222.304 32.3536 221.083 37.049 220.101C44.0605 218.641 51.1979 218.541 55.075 218.566Z" fill="#1A7DB9"/>
<path d="M18.0032 91.0921C17.2227 80.4315 21.6537 72.4267 31.7241 67.6313C33.4235 66.8258 34.9844 65.7433 36.5957 64.7868C46.0619 59.1985 53.3504 60.948 60.1353 70.073C65.6489 77.4863 73.1514 80.2176 82.2399 78.5562C83.6372 78.3044 85.3492 77.1591 86.3688 78.4555C87.6024 80.0036 86.1296 81.6146 85.2737 82.9488C82.5295 87.2659 78.3125 89.1035 73.4535 88.3735C69.8659 87.8323 68.456 88.2728 67.5875 92.25C65.3971 102.306 55.2889 105.428 48.0256 98.1782C44.1233 94.2764 42.6002 95.5602 40.2336 99.3109C37.4769 103.691 33.0459 106.259 27.9603 105.302C19.262 103.678 17.0968 102.269 18.0032 91.0921Z" fill="#1A7DB9"/>
<path d="M239.427 55.9007C239.389 66.662 231.534 74.6417 220.897 74.7172C209.769 74.7927 201.537 66.3599 201.738 55.1078C201.927 44.7871 210.499 36.6815 221.023 36.8703C231.622 37.0339 239.464 45.1647 239.427 55.9007Z" fill="#EBB138"/>
<path d="M214.918 272.183C219.538 263.926 224.787 256.564 231.358 250.157C245.771 236.111 262.929 227.791 283.006 225.639C284.605 225.463 286.594 224.582 287.689 226.193C288.772 227.791 287.186 229.327 286.456 230.736C284.555 234.386 281.383 236.778 277.896 238.792C259.807 249.263 241.743 259.76 223.578 270.106C221.237 271.44 218.82 273.505 214.918 272.183Z" fill="#1A7DB9"/>
<path d="M43.7834 203.94C39.5538 205.325 36.797 203.085 36.86 197.358C36.8852 195.017 36.0543 192.563 40.649 193.003C44.0478 193.33 47.3081 190.146 49.9515 187.528C51.2355 186.257 52.3181 185.074 54.2189 185.942C64.0376 190.473 73.5164 187.138 83.0707 184.835C90.485 183.047 91.127 183.513 92.6628 191.04C92.7509 191.455 92.8642 191.858 92.9397 192.26C95.5202 206.068 94.4503 207.125 80.8804 204.897C69.035 202.971 57.1393 202.317 43.7834 203.94Z" fill="#1A7DB9"/>
<path d="M55.4653 253.656C78.8917 251.743 99.1458 258.98 116.996 273.341C119.01 274.965 118.569 286.771 116.555 287.878C115.989 288.193 114.893 288.017 114.264 287.664C94.6393 276.349 75.0523 265.009 55.4653 253.656Z" fill="#1A7DB9"/>
<path d="M18.4439 163.727C19.3376 164.482 19.9041 164.759 19.8915 164.999C19.2999 178.604 27.7213 189.919 29.5717 202.82C30.4655 209.013 23.9952 206.445 21.0622 208.081C18.5698 209.466 17.7138 207.263 18.0159 205.149C19.9796 191.568 16.5305 177.937 18.4439 163.727Z" fill="#1A7DB9"/>
<path d="M104.219 182.103C105.918 175.974 105.465 169.819 110.286 165.175C113.484 162.091 113.735 156.956 117.336 154.187C119.526 152.5 121.993 148.561 124.989 151.921C127.343 154.577 127.57 157.988 123.353 160.656C117.399 164.419 113.421 170.108 110.677 176.641C109.619 179.133 108.31 181.549 104.219 182.103Z" fill="#1A7DB9"/>
<path d="M48.164 183.689C47.3081 186.949 44.803 188.17 41.7441 188.56C40.435 188.724 38.8741 188.308 39.7426 186.597C40.9889 184.142 41.1147 180.467 44.6394 180.064C46.4647 179.85 48.1263 181.273 48.164 183.689Z" fill="#1A7DB9"/>
</svg>
